<svg xmlns="http://www.w3.org/2000/svg" fill="none" viewBox="0 0 24 24"><g clip-path="url(#a)"><path fill="CurrentColor" fill-rule="evenodd" d="M8 5h7.8c1.11 0 1.51.12 1.92.33.4.22.73.54.95.95.21.4.33.81.33 1.92V16a1 1 0 1 0 2 0V8.13c0-1.79-.19-2.43-.53-3.08a3.63 3.63 0 0 0-1.52-1.52C18.3 3.2 17.65 3 15.87 3H8a1 1 0 0 0 0 2zM6.2 7c-.88 0-1.39.05-1.92.33a2.27 2.27 0 0 0-.95.95C3.05 8.8 3 9.32 3 10.2v7.58c0 .89.05 1.4.33 1.93.22.4.54.73.95.95.53.28 1.04.33 1.92.33h7.6c.88 0 1.39-.05 1.92-.33.4-.22.73-.54.95-.95.28-.53.33-1.04.33-1.92v-7.6c0-.88-.05-1.39-.33-1.92a2.27 2.27 0 0 0-.95-.95C15.2 7.05 14.68 7 13.8 7H6.21zm-.98 2.1a.52.52 0 0 1 .2-.06c.14-.02.36-.04.79-.04h7.58c.43 0 .65.01.8.04a.52.52 0 0 1 .19.06.28.28 0 0 1 .12.12.52.52 0 0 1 .06.2c.02.14.04.36.04.78v7.6c0 .42-.02.64-.04.78a.52.52 0 0 1-.06.2.28.28 0 0 1-.12.12.52.52 0 0 1-.2.06c-.14.02-.36.04-.79.04H6.21c-.43 0-.65-.02-.8-.04a.52.52 0 0 1-.19-.06.28.28 0 0 1-.12-.12.52.52 0 0 1-.06-.2A5.63 5.63 0 0 1 5 17.8V10.2c0-.42.02-.64.04-.78a.52.52 0 0 1 .06-.2.28.28 0 0 1 .12-.12z" clip-rule="evenodd"/></g><defs><clipPath id="a"><path fill="CurrentColor" d="M0 0h24v24H0z"/></clipPath></defs></svg>