<svg xmlns="http://www.w3.org/2000/svg" fill="none" viewBox="0 0 24 24"><path stroke="CurrentColor" stroke-linecap="round" stroke-linejoin="round" stroke-width="2" d="M8 4h-.8c-1.12 0-1.68 0-2.1.22a2 2 0 0 0-.88.87C4 5.52 4 6.08 4 7.2V8m4-4h8M8 4V2m8 2h.8c1.12 0 1.68 0 2.1.22.38.19.7.5.88.87.22.43.22.99.22 2.1V8m-4-4V2M4 8v8.8c0 1.12 0 1.68.22 2.1.19.38.5.7.87.88.43.22.99.22 2.1.22h9.61c1.12 0 1.68 0 2.1-.22a2 2 0 0 0 .88-.87c.22-.43.22-.99.22-2.1V8M4 8h16m-4 8h0v0Zm-4 0h0v0Zm-4 0h0v0Zm8-4v0h0v0h0Zm-4 0h0v0Zm-4 0h0v0Z"/></svg>