<svg xmlns="http://www.w3.org/2000/svg" fill="none" viewBox="0 0 24 24"><path fill="CurrentColor" fill-rule="evenodd" d="M12 4.5C5.25 4.5 1.5 9.75 1.5 12s3.75 7.5 10.5 7.5 10.5-5.25 10.5-7.5S18.75 4.5 12 4.5zM5.55 15.1C4.28 13.97 3.5 12.58 3.5 12c0-.58.78-1.97 2.05-3.1A9.5 9.5 0 0 1 12 6.5c2.56 0 4.77.9 6.45 2.4 1.27 1.13 2.05 2.52 2.05 3.1 0 .58-.78 1.97-2.05 3.1A9.5 9.5 0 0 1 12 17.5a9.5 9.5 0 0 1-6.45-2.4zM12 16a4 4 0 1 1 0-8 4 4 0 0 1 0 8zm2-4a2 2 0 1 1-4 0 2 2 0 0 1 4 0z" clip-rule="evenodd"/></svg>