<svg xmlns="http://www.w3.org/2000/svg" fill="none" viewBox="0 0 24 24"><g stroke="currentColor" stroke-linecap="round" stroke-linejoin="round" stroke-width="2"><path d="m20.35 8.92-.37-.2A2 2 0 0 1 19.2 8l-.07-.12-.06-.11a2 2 0 0 1-.24-1.04l.01-.43c.01-.68.02-1.02-.08-1.33a2 2 0 0 0-.41-.73 4.43 4.43 0 0 0-1.11-.76l-.5-.28c-.59-.34-.88-.51-1.2-.58a2 2 0 0 0-.84 0c-.31.08-.6.25-1.2.6h0l-.35.22a2 2 0 0 1-1.02.32h-.26a2 2 0 0 1-.9-.26l-.12-.06-.36-.22c-.59-.35-.88-.53-1.2-.6a2 2 0 0 0-.84 0c-.32.06-.61.23-1.2.58h-.01l-.49.28h0c-.6.35-.89.52-1.1.76a2 2 0 0 0-.41.73c-.1.3-.1.65-.08 1.33v.56a2 2 0 0 1-.3 1.02L4.8 8a2 2 0 0 1-.67.67l-.11.06-.37.2c-.6.33-.9.5-1.12.74a2 2 0 0 0-.43.73c-.1.3-.1.65-.1 1.34v.56c0 .68 0 1.02.11 1.33a2 2 0 0 0 .43.72c.22.24.51.4 1.11.74l.36.2.12.06a2 2 0 0 1 .74.79l.07.12a2 2 0 0 1 .23 1.03l-.01.41c-.01.69-.02 1.03.08 1.34a2 2 0 0 0 .41.73c.22.24.52.41 1.11.76l.5.28c.59.34.88.51 1.2.58a2 2 0 0 0 .84 0c.32-.08.6-.25 1.2-.6l.35-.22.11-.06a2 2 0 0 1 .9-.25h.27a2 2 0 0 1 .9.25l.1.05.38.23c.59.35.88.53 1.2.6a2 2 0 0 0 .84 0c.32-.06.62-.23 1.2-.58l.5-.28c.6-.35.89-.52 1.1-.76a2 2 0 0 0 .41-.73c.1-.3.1-.64.08-1.32V17.14a2 2 0 0 1 .36-1.13 2 2 0 0 1 .67-.67l.11-.06h0l.37-.2c.6-.33.9-.5 1.12-.74a2 2 0 0 0 .43-.73c.1-.3.1-.64.1-1.32v-.58c0-.68 0-1.02-.1-1.33a2 2 0 0 0-.44-.72c-.21-.24-.51-.4-1.1-.74h-.01Z"/><path d="M8 12a4 4 0 1 0 8 0 4 4 0 0 0-8 0Z"/></g></svg>